<?xml version="1.0" encoding="UTF-8"?>
<!DOCTYPE svg PUBLIC "-//W3C//DTD SVG 1.1//EN" "http://www.w3.org/Graphics/SVG/1.1/DTD/svg11.dtd">
<svg version="1.2" width="20.01mm" height="20.01mm" viewBox="2000 5000 2001 2001" preserveAspectRatio="xMidYMid" fill-rule="evenodd" stroke-width="28.222" stroke-linejoin="round" xmlns="http://www.w3.org/2000/svg" xmlns:ooo="http://xml.openoffice.org/svg/export" xmlns:xlink="http://www.w3.org/1999/xlink" xmlns:presentation="http://sun.com/xmlns/staroffice/presentation" xmlns:smil="http://www.w3.org/2001/SMIL20/" xmlns:anim="urn:oasis:names:tc:opendocument:xmlns:animation:1.0" xml:space="preserve">
 <defs class="ClipPathGroup">
  <clipPath id="presentation_clip_path" clipPathUnits="userSpaceOnUse">
   <rect x="2000" y="5000" width="2001" height="2001"/>
  </clipPath>
  <clipPath id="presentation_clip_path_shrink" clipPathUnits="userSpaceOnUse">
   <rect x="2002" y="5002" width="1997" height="1997"/>
  </clipPath>
 </defs>
 <defs class="TextShapeIndex">
  <g ooo:slide="id1" ooo:id-list="id3 id4 id5 id6 id7 id8 id9 id10"/>
 </defs>
 <defs class="EmbeddedBulletChars">
  <g id="bullet-char-template-57356" transform="scale(0.00048828125,-0.00048828125)">
   <path d="M 580,1141 L 1163,571 580,0 -4,571 580,1141 Z"/>
  </g>
  <g id="bullet-char-template-57354" transform="scale(0.00048828125,-0.00048828125)">
   <path d="M 8,1128 L 1137,1128 1137,0 8,0 8,1128 Z"/>
  </g>
  <g id="bullet-char-template-10146" transform="scale(0.00048828125,-0.00048828125)">
   <path d="M 174,0 L 602,739 174,1481 1456,739 174,0 Z M 1358,739 L 309,1346 659,739 1358,739 Z"/>
  </g>
  <g id="bullet-char-template-10132" transform="scale(0.00048828125,-0.00048828125)">
   <path d="M 2015,739 L 1276,0 717,0 1260,543 174,543 174,936 1260,936 717,1481 1274,1481 2015,739 Z"/>
  </g>
  <g id="bullet-char-template-10007" transform="scale(0.00048828125,-0.00048828125)">
   <path d="M 0,-2 C -7,14 -16,27 -25,37 L 356,567 C 262,823 215,952 215,954 215,979 228,992 255,992 264,992 276,990 289,987 310,991 331,999 354,1012 L 381,999 492,748 772,1049 836,1024 860,1049 C 881,1039 901,1025 922,1006 886,937 835,863 770,784 769,783 710,716 594,584 L 774,223 C 774,196 753,168 711,139 L 727,119 C 717,90 699,76 672,76 641,76 570,178 457,381 L 164,-76 C 142,-110 111,-127 72,-127 30,-127 9,-110 8,-76 1,-67 -2,-52 -2,-32 -2,-23 -1,-13 0,-2 Z"/>
  </g>
  <g id="bullet-char-template-10004" transform="scale(0.00048828125,-0.00048828125)">
   <path d="M 285,-33 C 182,-33 111,30 74,156 52,228 41,333 41,471 41,549 55,616 82,672 116,743 169,778 240,778 293,778 328,747 346,684 L 369,508 C 377,444 397,411 428,410 L 1163,1116 C 1174,1127 1196,1133 1229,1133 1271,1133 1292,1118 1292,1087 L 1292,965 C 1292,929 1282,901 1262,881 L 442,47 C 390,-6 338,-33 285,-33 Z"/>
  </g>
  <g id="bullet-char-template-9679" transform="scale(0.00048828125,-0.00048828125)">
   <path d="M 813,0 C 632,0 489,54 383,161 276,268 223,411 223,592 223,773 276,916 383,1023 489,1130 632,1184 813,1184 992,1184 1136,1130 1245,1023 1353,916 1407,772 1407,592 1407,412 1353,268 1245,161 1136,54 992,0 813,0 Z"/>
  </g>
  <g id="bullet-char-template-8226" transform="scale(0.00048828125,-0.00048828125)">
   <path d="M 346,457 C 273,457 209,483 155,535 101,586 74,649 74,723 74,796 101,859 155,911 209,963 273,989 346,989 419,989 480,963 531,910 582,859 608,796 608,723 608,648 583,586 532,535 482,483 420,457 346,457 Z"/>
  </g>
  <g id="bullet-char-template-8211" transform="scale(0.00048828125,-0.00048828125)">
   <path d="M -4,459 L 1135,459 1135,606 -4,606 -4,459 Z"/>
  </g>
  <g id="bullet-char-template-61548" transform="scale(0.00048828125,-0.00048828125)">
   <path d="M 173,740 C 173,903 231,1043 346,1159 462,1274 601,1332 765,1332 928,1332 1067,1274 1183,1159 1299,1043 1357,903 1357,740 1357,577 1299,437 1183,322 1067,206 928,148 765,148 601,148 462,206 346,322 231,437 173,577 173,740 Z"/>
  </g>
 </defs>
 <defs class="TextEmbeddedBitmaps"/>
 <g class="SlideGroup">
  <g>
   <g id="container-id1">
    <g id="id1" class="Slide" clip-path="url(#presentation_clip_path)">
     <g class="Page">
      <g class="com.sun.star.drawing.CustomShape">
       <g id="id3">
        <rect class="BoundingBox" stroke="none" fill="none" x="2000" y="5000" width="2002" height="2002"/>
        <path fill="rgb(221,221,221)" stroke="none" d="M 2167,5000 C 2083,5000 2000,5083 2000,5167 L 2000,6834 C 2000,6917 2083,7001 2167,7001 L 3834,7001 C 3917,7001 4001,6917 4001,6834 L 4001,5167 C 4001,5083 3917,5000 3834,5000 L 2167,5000 Z M 2000,5000 L 2000,5000 Z M 4001,7001 L 4001,7001 Z"/>
       </g>
      </g>
      <g class="com.sun.star.drawing.PolyPolygonShape">
       <g id="id4">
        <rect class="BoundingBox" stroke="none" fill="none" x="2100" y="5100" width="1" height="1001"/>
       </g>
      </g>
      <g class="com.sun.star.drawing.PolyPolygonShape">
       <g id="id5">
        <rect class="BoundingBox" stroke="none" fill="none" x="2200" y="5200" width="436" height="1636"/>
        <defs>
         <mask id="mask1">
          <g>
           <defs>
            <linearGradient id="gradient1" x1="2435" y1="5235" x2="2435" y2="6835" gradientUnits="userSpaceOnUse">
             <stop offset="0.5" style="stop-color:rgb(26,26,26)"/>
             <stop offset="0.5" style="stop-color:rgb(26,26,26)"/>
             <stop offset="1" style="stop-color:rgb(26,26,26)"/>
             <stop offset="1" style="stop-color:rgb(26,26,26)"/>
            </linearGradient>
           </defs>
           <path style="fill:url(#gradient1)" d="M 2235,5235 L 2635,5235 2635,6835 2235,6835 2235,5235 Z"/>
          </g>
         </mask>
        </defs>
        <g style="mask:url(#mask1)">
         <path fill="rgb(128,128,128)" stroke="none" d="M 2235,5235 L 2235,6835 2635,6835 2635,6635 2435,6635 2435,5435 2635,5435 2635,5235 2235,5235 Z"/>
        </g>
        <path fill="rgb(93,93,93)" stroke="none" d="M 2200,5200 L 2200,6800 2600,6800 2600,6600 2400,6600 2400,5400 2600,5400 2600,5200 2200,5200 Z"/>
       </g>
      </g>
      <g class="com.sun.star.drawing.PolyPolygonShape">
       <g id="id6">
        <rect class="BoundingBox" stroke="none" fill="none" x="2900" y="5525" width="351" height="1051"/>
        <path fill="rgb(178,178,178)" stroke="none" d="M 2900,5575 L 2900,6575 3200,6486 3250,6311 3100,6361 3100,5525 2900,5575 Z"/>
       </g>
      </g>
      <g class="com.sun.star.drawing.PolyPolygonShape">
       <g id="id7">
        <rect class="BoundingBox" stroke="none" fill="none" x="2750" y="5700" width="602" height="326"/>
        <path fill="rgb(178,178,178)" stroke="none" d="M 2800,5825 L 2750,6025 3300,5900 3350,5700 2800,5825 Z"/>
       </g>
      </g>
      <g class="com.sun.star.drawing.PolyPolygonShape">
       <g id="id8">
        <rect class="BoundingBox" stroke="none" fill="none" x="2700" y="5675" width="601" height="326"/>
        <path fill="rgb(87,167,39)" stroke="none" d="M 2750,5800 L 2700,6000 3250,5875 3300,5675 2750,5800 Z"/>
       </g>
      </g>
      <g class="com.sun.star.drawing.PolyPolygonShape">
       <g id="id9">
        <rect class="BoundingBox" stroke="none" fill="none" x="3400" y="5200" width="436" height="1636"/>
        <defs>
         <mask id="mask2">
          <g>
           <defs>
            <linearGradient id="gradient2" x1="3635" y1="5235" x2="3635" y2="6835" gradientUnits="userSpaceOnUse">
             <stop offset="0.5" style="stop-color:rgb(26,26,26)"/>
             <stop offset="0.5" style="stop-color:rgb(26,26,26)"/>
             <stop offset="1" style="stop-color:rgb(26,26,26)"/>
             <stop offset="1" style="stop-color:rgb(26,26,26)"/>
            </linearGradient>
           </defs>
           <path style="fill:url(#gradient2)" d="M 3435,5235 L 3835,5235 3835,6835 3435,6835 3435,5235 Z"/>
          </g>
         </mask>
        </defs>
        <g style="mask:url(#mask2)">
         <path fill="rgb(128,128,128)" stroke="none" d="M 3835,5235 L 3835,6835 3435,6835 3435,6635 3635,6635 3635,5435 3435,5435 3435,5235 3835,5235 Z"/>
        </g>
        <path fill="rgb(93,93,93)" stroke="none" d="M 3800,5200 L 3800,6800 3400,6800 3400,6600 3600,6600 3600,5400 3400,5400 3400,5200 3800,5200 Z"/>
       </g>
      </g>
      <g class="com.sun.star.drawing.PolyPolygonShape">
       <g id="id10">
        <rect class="BoundingBox" stroke="none" fill="none" x="2850" y="5489" width="351" height="1051"/>
        <path fill="rgb(87,167,39)" stroke="none" d="M 2850,5539 L 2850,6539 3150,6450 3200,6275 3050,6325 3050,5489 2850,5539 Z"/>
       </g>
      </g>
     </g>
    </g>
   </g>
  </g>
 </g>
</svg>